<?xml version="1.0" encoding="UTF-8"?>
<svg id="Layer_1" data-name="Layer 1" xmlns="http://www.w3.org/2000/svg" viewBox="0 0 331.51 430.35">
  <defs>
    <style>
      .cls-1 {
        fill: #faf4ee;
      }

      .cls-2 {
        fill: #5e8581;
      }

      .cls-3 {
        fill: #fff;
      }

      .cls-4 {
        fill: none;
      }

      .cls-5 {
        fill: #dd7931;
      }

      .cls-6 {
        fill: #080909;
      }

      .cls-7 {
        fill: #cb5d35;
      }

      .cls-8 {
        fill-rule: evenodd;
      }
    </style>
  </defs>
  <path class="cls-5" d="M77.18,135.37c-3.07,4.2-7.21,2.27-10.04,3.96-.82.49-1.79,2.88-2.66,3.72-4.43,4.27-13.13,7.24-19.27,6.3-.75.65,3.99,3.69.85,6.04-2.96,2.21-3.85-1.86-4.67-2.83-.37-.43-2.17-.99-3.21-1.97-4.36-4.11-3.32-11.94,0-16.48,6.48-8.84,20.41-9.53,30.39-8.43,5.14.57,13.21,3.4,8.6,9.69ZM304.21,144.22c-.83,1.24-3.78,3.08-3.33,4.71.28,1.05,2.85,2.05,1.5,4.11-5.03,3.48-6.77-4.39-8.03-4.83-1.22-.42-3.25.12-4.73-.14-3.73-.66-7.4-1.85-10.41-4.2-1.24-.97-3.81-4.58-4.08-4.74-1.24-.72-5.84.47-8.72-1.33-3.95-2.47-3.49-8.38.51-10.48,6.03-3.17,21.32-3.61,27.79-1.38,6.94,2.38,14.38,11.04,9.5,18.28ZM180.32,104.31c-2.8-5.8-9.68-25.39-10.29-31.4-.92-9.06,2.33-17.47,7.35-24.78,4.72-6.85,14.84-14.17,9.41-23.63-4.38-7.61-13.48-5.98-18.98-.54-13.23,13.07-17.97,38.93-14.58,56.62,2.02,10.59,7.75,19.61,10.65,29.82-.85-.59-1.78-.26-2.66.03-6.95,2.24-12.37,5.86-18.03,10.31-5.1-10.88-9.41-17.83-4.37-30.23,2.53-6.22,13.4-15.13,7.14-21.52-7.71-7.86-16.69,7.11-18.87,13.44-5.12,14.85-2.6,24.41,2.71,38.31-2.68-.54-7.22,1.5-9.9,2.58-20.51,8.27-44.14,24.01-46.7,47.93-8.44-.84-16.69,2.07-22.5,8.21-.97,1.04-2.03,3.78-3.05,4.28-1.57.76-8.25.47-11.71,1.68-3.64,1.28-6.98,4.86-9.44,5.77-2.11.79-5.93,1.35-8.24,2-.73.2-.22,2.58-1.65-.02C-13.26,64.44,119.75-39.58,238.54,14.74c69.97,32,107.32,108.87,87.84,183.3-3.42-.6-.3,2.75-3.69,1.55-4.94-1.75-6.25-6.71-9.91-9.87-3.21-2.77-8.27-4.8-12.42-5.53-1.77-.31-3.86.18-5.2-.14-.37-.09-1.87-2.89-2.56-3.67-3.34-3.79-7.19-7.16-12.21-8.48-2.14-.56-7.77-.47-8.65-1.39-.24-.25-1.93-5.46-2.3-6.52-7.19-20.57-26.12-32.74-47.5-35.88-4.75-.69-7,1.74-9.98-3.11-5.56-9.07-8.69-20.03-3.56-30.03,2.81-5.48,12.29-13.29,6.88-19.84-4.2-5.09-10.92-.41-13.93,3.66-7.06,9.56-9.89,27.03-6.43,38.3-.16.73.65,2.84-.89,2.42-2.17-.6-6.22-3.09-8.84-3.94-1-.33-2.34-.66-3.37-.91-1.27-.32-.43-1.23-1.5.61.23-2.99-.17-6.13,0-9.13v-1.83Z"/>
  <path class="cls-7" d="M163.88,110.4c1.72,6.07,2.61,12.24,3.79,18.43,1.01,1.97,3.55,1.86,5.36,1.37,5.07-1.36,6.93-10.36,7.29-14.93,1.07-1.84.23-.93,1.5-.61,1.04.26,2.37.59,3.37.91,2.62.86,6.67,3.34,8.84,3.94,1.54.42.73-1.69.89-2.42,1.87,6.09,6.43,12.33,8.08,19,1,4.04.46,7.66,1.18,10.99.67,3.11,4.44,2.94,6.22,1.02,4.11-4.42,2.94-17.56,1.55-23.1,2.97,4.85,5.23,2.41,9.98,3.11,21.38,3.14,40.32,15.31,47.5,35.88.37,1.06,2.06,6.27,2.3,6.52.88.91,6.51.83,8.65,1.39,5.02,1.32,8.86,4.69,12.21,8.48.69.78,2.18,3.58,2.55,3.67,1.35.32,3.44-.17,5.2.14,4.16.73,9.21,2.76,12.42,5.53,3.66,3.16,4.97,8.11,9.91,9.87,3.39,1.2.26-2.15,3.68-1.55-12.07,46.12-44.55,85.49-88.88,103.76-.79.32-2.31.23-2.41.3-1.96.64-1.34-3.08-1.08-3.53.36-.62,5.43-3.35,6.5-4.14,21.87-16.05,33.51-34.92,28.48-63.06-.65-3.61-2.9-7.87-3.37-10.68s2.19-3.55,4.35-4.52c4.39-1.98,17.55-4.93,18.58-10.07.69-3.41-3.43-11.61-6.39-13.44-4.4-2.73-16.8-1.02-22.01.3-4.09,1.03-10.19,5.84-12,.24-2.14-6.62,8.33-5.88,9.34-13.28,1.01-7.34-7.47-9.48-12.8-11.26-19.15-6.39-40.22-9.3-60.32-10.88-2.99-2.48.49-3.42,1.69-4.82,2.56-3,2.23-6.96-1.27-8.99s-19.9-1.8-23.94-.39c-5.21,1.83-5.12,6.62-2.11,10.63,1.06,1.41,2.81.89,2.1,3.67-19.31,1.18-39.38,3.8-57.95,9.3-6.42,1.9-17.55,4.27-16.95,12.9.42,6.12,8.41,6.83,9.64,8.96.81,1.41-.46,6.59-2.1,7.12-1.06.34-10.94-3.56-13.45-4.03-5.32-1-16.63-2.16-20.62,1.86-.81.81-3.47,5.46-3.97,6.68-2.41,5.86-.84,7.96,4.38,10.45,2.44,1.17,18.04,6.16,18.3,7.4-.44,3.42-2.19,6.38-3.05,9.7-6.67,25.7,3.99,47.96,24.16,63.53,2.91,2.25,10.75,5.75,11.09,9.15.04.38.02.83,0,1.22h-2.43c-.1-.08-1.21-.03-1.8-.3-46.54-20.91-77.92-58.79-89.48-108.64,1.44,2.61.93.22,1.65.02,2.31-.65,6.13-1.2,8.24-1.99,2.46-.92,5.8-4.5,9.44-5.77,3.45-1.21,10.14-.92,11.7-1.68,1.02-.5,2.08-3.24,3.06-4.27,5.81-6.14,14.06-9.06,22.5-8.21,2.56-23.92,26.19-39.66,46.7-47.93,2.67-1.08,7.21-3.12,9.9-2.58,1.64,4.28,4.01,8.18,5.08,12.87.57,2.51.86,12,2.02,12.73,2.23,1.41,4.88.53,6.29-1.56,3.61-5.37,2.9-16.37.6-22.22-.1-.25-.39-.45-.61-.61-.09-.37.12-.97,0-1.22,5.66-4.45,11.08-8.08,18.03-10.32.88-.28,1.81-.61,2.66-.03Z"/>
  <path class="cls-6" d="M113.37,299.67c-.14-4.43-.21-2.42-3.6-4.62-23.98-15.49-40.2-39.05-30.5-68.74,1.37-4.21,5.37-7.24.46-10.77-3.79-2.72-19.66-6.68-21.19-8.63-2.64-3.39,3.12-11.88,7.09-12.5,3.52-.54,22.83,1.83,24.56,4.28.81,1.14-2.27,5.12-3.39,5.33-.42.08-6.54-2.41-8-2.77-4.63-1.15-9.39-2.02-14.12-2.61,6.21,5.6,15.73,5.85,23.11,9.51l1.23-.04c2.91-6.02,16.05-15.61,8.23-22.26-2.79-2.38-8-1.76-7-6.68,15.28,4.43,31.37,4.29,47.19,4.84,27.5.96,55.19,1.85,82.74.02,11.35-.76,22.54-2.71,33.78-4.25,1.82,1.66-7.26,5.79-8.12,6.2-.57.27-.92,1.07-1,1.1-6.65,2.6-26.96,3.06-34.99,3.66-3.56.26-7.38,1.03-10.94,1.24-1.54.09-19.81-.11-19.81.89,15.68,1.28,31.44,2.2,47.2,2.16l18.54-1.24c.09.34-.06.83,0,1.22-27.89,3.07-56.8,4.82-84.92,3.68-1.72-.07-3.34-.92-5.08-.57-5.81,22.24-.58,50.68,18.6,64.95,21.92,16.31,63.7,14.47,83.87-4.17l9.45-10.94c-1.7,22.44-17.97,37.8-35.95,48.95-1.61,1.68,0,4.15.04,5.22.23,5.24.57,15.84-7.73,11.08-4.2-2.41-1.86-7.82-2.93-11.69-6.79,1.8-13.77,3.42-20.76,4.19-16.7,1.84-35.55,1.68-52.26.07-7.89-.76-15.6-3.03-23.44-3.65-.12,4.59,1.35,11.79-5.17,11.62-7.24-.19-5-8.89-5.17-14.05Z"/>
  <path class="cls-4" d="M282.15,192.66c-4.4-2.73-16.8-1.02-22.01.3-4.09,1.03-10.19,5.84-12,.24-2.13-6.62,8.33-5.88,9.35-13.28,1-7.34-7.47-9.48-12.81-11.26-19.15-6.39-40.22-9.3-60.32-10.88-2.99-2.48.5-3.42,1.69-4.82,2.57-3,2.24-6.96-1.26-9-3.57-2.07-19.9-1.8-23.94-.39-5.22,1.83-5.13,6.62-2.11,10.63,1.06,1.41,2.81.89,2.1,3.67-19.31,1.17-39.38,3.79-57.95,9.3-6.41,1.9-17.54,4.27-16.94,12.9.42,6.12,8.41,6.84,9.64,8.96.81,1.4-.46,6.59-2.1,7.12-1.07.34-10.95-3.56-13.45-4.03-5.32-1.01-16.63-2.17-20.63,1.86-.81.81-3.47,5.46-3.97,6.68-2.41,5.86-.84,7.96,4.38,10.45,2.45,1.17,18.05,6.17,18.3,7.4-.44,3.42-2.18,6.38-3.04,9.7-6.68,25.7,3.99,47.96,24.15,63.52,2.92,2.25,10.75,5.75,11.1,9.16.66-1.05,1.89-1.25,3.04-1.22-.14-4.43-.21-2.42-3.6-4.62-23.98-15.49-40.2-39.05-30.5-68.73,1.38-4.21,5.37-7.24.46-10.77-3.79-2.72-19.66-6.68-21.19-8.63-2.64-3.39,3.12-11.89,7.1-12.5,3.51-.54,22.82,1.84,24.56,4.28.81,1.14-2.28,5.11-3.39,5.32-.42.08-6.54-2.4-8-2.76-4.63-1.15-9.39-2.03-14.13-2.61,6.21,5.6,15.74,5.85,23.11,9.51l1.23-.05c2.91-6.02,16.05-15.6,8.23-22.26-2.79-2.37-8-1.75-7-6.68,15.28,4.43,31.37,4.29,47.19,4.84,27.5.96,55.19,1.85,82.73.02,11.36-.75,22.54-2.71,33.78-4.25,1.82,1.66-7.26,5.79-8.12,6.2-.57.26-.92,1.07-1,1.1-1.26,2.27-.57,4.44,0,6.7.08.33-.06.83,0,1.21.75.19,7.16,9.14,8.52,10.68.43.49.53,1.43.6,1.49.48.42,2.89.73,3.68.37l21.27-8.29c.16-1.04-1.44-.64-2.11-.59-1.51.12-3.81.48-5.33.77-2.78.52-14.31,4.75-15.3,4.56-1.17-.23-3.39-3.5-2.73-4.63.32-.56,5.85-2.79,6.95-3.11,4.36-1.27,17.21-3.36,20.67-.65,2.12,1.66,4.64,7.88,3.83,10.54-.71,2.3-18.79,7.36-23.06,11.04-.92.79-.99,1.99-1.17,2.17,5.43,7.34,6.76,19.6,6.08,28.6-1.69,22.44-17.97,37.8-35.94,48.95-1.61,1.68-.01,4.14.04,5.21,2.87-1.87,2.51.72,3.05,1.22,1.29,1.17,1.12-1.15,1.21-1.22-1.96.64-1.34-3.07-1.08-3.52.35-.63,5.42-3.35,6.5-4.14,21.86-16.05,33.51-34.92,28.48-63.06-.65-3.61-2.9-7.87-3.37-10.68-.46-2.76,2.19-3.55,4.34-4.52,4.4-1.98,17.55-4.93,18.58-10.07.69-3.42-3.43-11.61-6.39-13.45ZM154.43,181.63c-13.77-.28-27.9-.77-41.67-1.85-1-.08-2.04.08-3.04,0-.23-.02-.42-.06-.57-.11-.07-.02-.13-.05-.18-.07-.07-.03-.12-.07-.17-.1-.08-.06-.13-.11-.17-.15-.05-.07-.08-.12-.1-.16l-.03-.02c-4.74-.47-9.09-.3-13.89-1.63-1.41-.39-4.32-.62-3.08-2.56,1.03-1.61,21.58-6.93,24.88-7.69,8.69-1.99,16.22-2.9,24.96-3.94,6.75-.81,14.7-.92,21.01-1.78,1.06-.15,1.25-1.27,1.5-1.27.15-1.84,1.08-3.78.5-5.66-.31-1.02-9.72-7.09-1.98-8.29,4.58-.71,15.51-.97,19.91.09,6.91,1.67-2.06,6.69-2.5,8.22-.62,2.16,1.2,4.13,1.11,6.25,20.29.81,49.15,5,67.87,12.77,1.4.58,4.04,1.16,3.94,3.05-32.08,5.77-65.67,5.56-98.3,4.9Z"/>
  <path class="cls-1" d="M120.44,365.71c-.04.74.14.88-.92.74-.82-.11-.43-.67-.52-.74h1.43Z"/>
  <path class="cls-1" d="M180.32,115.27c-.36,4.56-2.22,13.56-7.29,14.93-1.81.48-4.35.6-5.36-1.38-1.17-6.18-2.06-12.35-3.79-18.42-2.9-10.21-8.63-19.23-10.65-29.82-3.39-17.69,1.35-43.55,14.58-56.62,5.5-5.44,14.6-7.07,18.98.54,5.43,9.46-4.69,16.78-9.41,23.63-5.02,7.31-8.27,15.72-7.35,24.78.61,6.01,7.49,25.6,10.29,31.4.07.58-.12,1.31,0,1.83-.17,3,.23,6.14,0,9.13Z"/>
  <path class="cls-1" d="M143.19,120.74c.12.25-.09.85,0,1.22.06.27.34.52.61.61,2.3,5.85,3.01,16.84-.6,22.22-1.41,2.1-4.06,2.97-6.29,1.56-1.16-.73-1.45-10.22-2.02-12.73-1.06-4.7-3.44-8.59-5.08-12.87-5.31-13.91-7.83-23.46-2.71-38.32,2.18-6.33,11.16-21.3,18.87-13.44,6.26,6.39-4.6,15.3-7.14,21.52-5.04,12.4-.73,19.35,4.37,30.23Z"/>
  <path class="cls-1" d="M211.96,125c1.39,5.54,2.56,18.68-1.55,23.1-1.79,1.92-5.55,2.09-6.22-1.02-.72-3.33-.18-6.95-1.18-10.99-1.65-6.67-6.21-12.91-8.08-19-3.46-11.27-.63-28.75,6.43-38.3,3.01-4.07,9.73-8.76,13.93-3.66,5.41,6.55-4.08,14.36-6.88,19.84-5.13,10-2,20.96,3.56,30.04Z"/>
  <path class="cls-7" d="M64.47,143.05c-4.43,4.27-13.13,7.24-19.26,6.3-.75.65,3.98,3.69.84,6.04-2.96,2.21-3.84-1.86-4.67-2.83-.37-.44-2.17-.99-3.21-1.97-4.36-4.11-3.32-11.94,0-16.48,6.48-8.84,20.41-9.53,30.39-8.43,5.15.57,13.21,3.4,8.61,9.7-3.07,4.2-7.21,2.27-10.04,3.96-.82.49-1.79,2.88-2.67,3.72Z"/>
  <path class="cls-7" d="M304.21,144.22c-.83,1.23-3.78,3.07-3.33,4.7.29,1.05,2.85,2.06,1.5,4.12-5.03,3.48-6.77-4.4-8.03-4.83s-3.24.12-4.73-.14c-3.73-.66-7.4-1.85-10.41-4.2-1.24-.97-3.81-4.58-4.08-4.74-1.24-.72-5.84.46-8.71-1.33-3.95-2.47-3.5-8.38.5-10.48,6.04-3.17,21.32-3.61,27.79-1.38,6.94,2.39,14.38,11.05,9.5,18.29Z"/>
  <path class="cls-5" d="M143.8,122.57c-.27-.09-.54-.34-.61-.61.22.16.51.36.61.61Z"/>
  <path class="cls-2" d="M260.65,219.34c-2.33,2.35-7.91,2.43-9.87-.79-2.92-4.81.2-7.81,3.17-11.39-.07-.06-.17-1-.6-1.49-1.36-1.54-7.77-10.49-8.52-10.68-27.89,3.07-56.81,4.82-84.93,3.68-1.72-.07-3.33-.92-5.08-.57-5.8,22.24-.58,50.68,18.6,64.95,21.92,16.31,63.7,14.47,83.87-4.17l9.44-10.94c.68-9-.65-21.26-6.08-28.6ZM232.81,222.23c-14.02-.87-29.23,1.84-43.05.75-3.18-.25-6.87-.53-8.84-3.34-3.39-4.84.28-9.47,5.45-10.38,8.14-1.42,23.75-.56,32.77-.7,5.74-.09,19.37-2.01,20.18,6.29.39,4.05-2.91,6.54-6.51,7.38Z"/>
  <path class="cls-2" d="M244.82,187.08c-1.25,2.27-.57,4.43,0,6.69l-18.54,1.24c-15.75.04-31.52-.87-47.2-2.16,0-.99,18.27-.8,19.81-.89,3.56-.21,7.38-.97,10.94-1.24,8.02-.6,28.34-1.06,34.99-3.66Z"/>
  <path class="cls-2" d="M248.79,173.68c-18.72-7.77-47.58-11.96-67.87-12.77-5.49-.22-11.77-.61-17.04-.61-.25,0-.44,1.12-1.5,1.27-6.31.86-14.26.97-21.01,1.78l.45.75c-9.28,3.3-19.11,7.97-27.24,13.53-.88.6-1.91.64-1.82,2.15,13.77,1.08,27.9,1.57,41.67,1.85,32.63.66,66.22.87,98.3-4.9.1-1.89-2.54-2.47-3.94-3.05ZM221.42,179.2c-10.47.71-21.8-.85-32.26-1.27-3.31-.14-15.91.58-17.86-.69-.37-.25-.75-2.02-.7-2.59.25-3.18,4.87-4.39,7.56-4.63,8.48-.76,38.96-.1,45.79,3.55,5.4,2.89,2.37,5.29-2.53,5.63Z"/>
  <path class="cls-6" d="M260.65,219.33c-2.33,2.35-7.9,2.44-9.86-.79-2.92-4.81.2-7.8,3.17-11.38.47.41,2.89.73,3.67.37l21.28-8.29c.15-1.04-1.44-.65-2.11-.59-1.51.12-3.81.48-5.32.77-2.78.53-14.31,4.75-15.31,4.56-1.17-.22-3.39-3.49-2.73-4.63.32-.56,5.85-2.78,6.95-3.1,4.36-1.28,17.21-3.37,20.67-.66,2.12,1.66,4.64,7.88,3.83,10.55-.71,2.3-18.78,7.36-23.06,11.04-.92.79-.99,1.98-1.17,2.16Z"/>
  <path class="cls-6" d="M141.36,163.34l.46.75c-9.28,3.3-19.12,7.98-27.25,13.54-.87.6-1.91.64-1.81,2.14-1-.08-2.04.09-3.04,0l-1.22-.61c-4.75-.47-9.09-.3-13.89-1.63-1.41-.39-4.32-.62-3.08-2.56,1.03-1.6,21.58-6.93,24.87-7.68,8.69-1.99,16.22-2.91,24.96-3.95Z"/>
  <path class="cls-6" d="M180.92,160.91c-5.5-.22-11.78-.62-17.04-.61.15-1.84,1.08-3.79.5-5.67-.31-1.01-9.72-7.09-1.98-8.29,4.57-.71,15.51-.97,19.91.09,6.91,1.67-2.06,6.69-2.5,8.22-.62,2.16,1.2,4.13,1.11,6.25Z"/>
  <path class="cls-2" d="M109.72,179.77c-1.08-.09-1.15-.6-1.22-.61l1.22.61Z"/>
  <path class="cls-3" d="M219.14,208.56c5.74-.09,19.37-2.01,20.18,6.29.39,4.05-2.91,6.55-6.5,7.39-14.02-.88-29.23,1.84-43.06.75-3.17-.25-6.86-.53-8.83-3.34-3.4-4.84.28-9.47,5.45-10.38,8.14-1.43,23.75-.56,32.77-.7Z"/>
  <path class="cls-1" d="M171.3,177.24c-.37-.24-.75-2.02-.7-2.59.25-3.18,4.87-4.39,7.56-4.63,8.48-.76,38.96-.1,45.79,3.55,5.4,2.89,2.37,5.29-2.53,5.63-10.47.71-21.8-.85-32.26-1.27-3.32-.13-15.91.59-17.87-.69Z"/>
  <path class="cls-8" d="M100.19,395.06c-1.23-4.59-12.84-38.71-14.43-42.37-1.65-3.77-4.89-5.42-8.07-4-1,.41-2.3,1.41-2.77,2.18-.53.82-2.65,6.6-4.71,12.9-2.06,6.31-5.42,16.21-7.42,22.04s-3.65,11.49-3.65,12.55c0,3.71,3.35,5.6,6.89,3.89,2-.94,2.41-1.71,4.65-8.19l.77-2.36h16.84l1.42,4.19c.76,2.3,1.94,4.77,2.59,5.42,2.42,2.59,5.95,2.24,7.95-.77.95-1.41.95-1.77-.06-5.48ZM80.22,382.57c-5.77,0-5.65.18-3.94-5.07.65-1.88,1.76-5.48,2.47-7.89.71-2.42,1.36-4.19,1.47-3.84.12.3,1.18,3.78,2.36,7.67,1.18,3.88,2.3,7.54,2.42,8.07.29.94-.24,1.06-4.78,1.06Z"/>
  <path class="cls-8" d="M221.07,348.62c-6.42,2.3-9.96,6.6-10.31,12.55-.53,7.84,2.3,11.37,13.73,17.03,9.07,4.54,10.9,6.07,10.9,9.07,0,3.89-3.24,6.48-8.19,6.48s-7.66-2-9.84-6.95c-1.24-2.89-1.47-3.06-3.42-3.06-3,0-4.48,1.65-4.48,5.01,0,4.95,4.12,10.25,9.96,12.85,3.36,1.53,10.84,1.59,14.73.18,7.72-2.83,12.55-10.96,10.66-18.09-1.53-5.89-4.95-8.9-15.37-13.44-6.72-2.95-8.9-4.89-8.9-8.01,0-2.71,1.47-4.3,4.59-5.01,4.36-1,7.78.65,10.6,5.01,1.65,2.65,2.36,3.24,3.71,3.24,2.12,0,3.59-1.71,4.01-4.6.59-4.3-3.65-9.9-9.07-11.9-3.71-1.36-9.96-1.53-13.31-.35Z"/>
  <path class="cls-8" d="M1.27,351.28c-2,3.5-1.94,4.11,2.36,26.92,1.77,9.35,4.24,22.9,5.6,30.07s2.95,14.51,3.53,16.26c1.35,3.93,3.83,5.68,6.95,4.98,3.42-.87,4.89-4.11,8.07-17.92.05-.19.09-.39.14-.58.76-3.18,5.3-3.15,6.01.05.01.06.03.12.04.18,1.41,6.12,3,12.32,3.59,13.81,2.53,6.29,9.31,6.47,11.43.26,1.77-4.98,13.25-65.73,13.25-70.01,0-6.29-5.6-9.26-8.6-4.46-1.59,2.53-1.83,3.58-6.77,30.42-1.94,10.58-3.65,19.84-3.89,20.54-.35,1.4-3.24-10.4-6.07-24.73-2.24-11.27-2.95-12.85-5.83-12.85-1.32,0-2.35.49-3.06,1.34-.17.2-.36.58-.45.82-.72,2.06-2.45,9.11-4.04,16.8-1.77,8.57-3.48,16.52-3.71,17.74-.53,2.62-.65,2.27-2.3-7.87-.71-4.11-2.65-14.68-4.3-23.6-3.42-18.18-4.54-20.98-8.31-20.98-1.59,0-2.42.61-3.65,2.8Z"/>
  <path class="cls-8" d="M110.91,349.04c-2.65,1.53-2.77,2.65-2.77,27.28,0,12.79.18,23.69.35,24.22.59,1.47,3.65,2.77,5.54,2.36,3.48-.77,3.48-.88,3.53-18.56.12-16.03.12-16.15,1.24-14.73.59.82,1.3,2,1.47,2.65.65,1.94,6.24,11.61,7.36,12.73,1.41,1.41,4.71,1.47,6.36.06.71-.53,3.12-4.48,5.36-8.66l4.12-7.66v15.67c0,14.56.06,15.85,1.12,17.09,1.53,1.89,5.42,1.94,7.25.06l1.35-1.36-.06-23.1c0-12.73-.24-23.87-.41-24.75-.53-2-3.53-3.95-6.24-3.95-3.12,0-5.71,3.24-10.96,13.85l-4.54,9.19-1.12-1.77c-.59-1-1.77-3.18-2.65-4.89-3-6.01-8.01-14.02-9.48-15.2-1.65-1.3-5.07-1.53-6.83-.53Z"/>
  <path class="cls-8" d="M164.05,350.1l-1.71,1.71v16.5c0,14.73.12,16.91,1.18,20.21,1.59,5.19,3.71,8.25,7.54,10.78,11.02,7.25,23.98,3.12,28.86-9.19.82-2.18.94-5.13,1-20.68v-18.21l-1.65-1.41c-2-1.71-4.48-1.83-6.36-.29l-1.41,1.12-.29,17.91c-.29,16.68-.35,17.97-1.53,19.92-3.48,5.95-10.9,6.25-15.02.59-1.83-2.47-2.3-7.13-2.3-22.81v-14.97l-1.47-1.41c-2-2.06-4.59-1.94-6.83.24Z"/>
  <path class="cls-8" d="M250.41,349.86c-2.83,2.77-2.06,4.83,9.37,25.93l4.77,8.84.29,8.01c.18,5.36.53,8.31,1.06,8.96,2,2.42,7.25,1.36,8.36-1.71.35-.82.59-4.71.59-8.6v-7.19l6.77-12.49c8.25-15.26,9.31-17.62,8.84-19.8-.47-2-2.36-3.42-4.65-3.42-2.65,0-4.83,2.89-10.66,14.38-4.71,9.19-5.36,10.25-6.07,9.37-.47-.59-3.06-5.54-5.83-11.08-2.83-5.48-5.71-10.61-6.42-11.31-1.83-1.83-4.59-1.77-6.42.12Z"/>
  <path class="cls-8" d="M298.95,350.1l-1.71,1.71v23.51c0,12.91.18,24.04.35,24.75.47,1.65,3.83,3.3,5.83,2.77.82-.18,2-1.06,2.65-1.83,1.12-1.47,1.18-2.47,1.18-24.99,0-15.91-.24-23.92-.65-24.87-1.41-3.06-5.12-3.54-7.66-1.06Z"/>
  <path class="cls-8" d="M94.91,415.63c-1.77.94-2.65,2.3-2.65,4.01,0,2.06,1.35,3.24,5.01,4.24,1.94.53,3,1.18,3.12,1.83.59,2.83-3.71,3.83-5.66,1.3-1.3-1.65-3.06-1.94-3.06-.59,0,.53.65,1.59,1.47,2.36,1.12,1.18,2,1.47,4.36,1.47,2.95,0,4.12-.65,5.36-2.95.65-1.24,0-3.48-1.3-4.54-.47-.41-1.94-.94-3.36-1.3-3.18-.71-4.06-1.47-3.24-2.89,1.06-1.65,3.53-1.59,5.12.12,1.47,1.59,2.18,1.47,2.18-.35,0-1.24-3.24-3.42-5.01-3.42-.65,0-1.71.35-2.36.71Z"/>
  <path class="cls-8" d="M184.1,422.29c-2.83-7.6-3.77-8.72-5.48-6.07-1,1.65-4.48,11.78-4.48,13.14,0,1.71,2.01.71,2.6-1.36.47-1.76.7-1.88,3.29-1.88s2.77.12,3.72,2.06c.94,2,2.76,2.89,2.76,1.3,0-.36-1.06-3.6-2.41-7.19ZM180.03,423.76c-1.11,0-1.64-.24-1.47-.77.12-.35.59-1.53.94-2.47l.65-1.77.83,1.77c.41.94.76,2.12.82,2.47,0,.48-.71.77-1.77.77Z"/>
  <path class="cls-8" d="M70.82,425c-.65-1.18-.65-1.65,0-2.95,1.12-2.12,1-3.18-.41-5.01-1.12-1.41-1.59-1.53-5.3-1.53-2.83,0-4.19.24-4.42.77-.12.41-.18,3.65-.12,7.24.18,5.49.29,6.43,1.18,6.6.82.18,1-.35,1.18-2.65.17-2.77.17-2.83,2.35-3,1.89-.18,2.3.06,3.07,1.59.53.94.94,2.3.94,3,0,.77.41,1.18,1.18,1.18.94,0,1.17-.41,1.17-1.94-.05-1-.41-2.54-.82-3.3ZM68.64,420.87c-.47.95-1.12,1.12-3.06,1-2.3-.17-2.48-.29-2.65-2.06-.12-1.35.06-1.88.88-2.12,1.59-.41,2.12-.41,3.53-.06,1.59.41,2.12,1.71,1.3,3.24Z"/>
  <path class="cls-8" d="M77.65,422.7l.18,7.25,4.59.18c4.24.18,4.89-.06,4.42-1.53-.12-.24-1.65-.41-3.42-.41h-3.24l-.18-2.24-.18-2.18h3.18c3.42,0,4.06-.24,3.53-1.53-.18-.59-1.3-.82-3.48-.82h-3.18v-4.12l3.36.12c2.83.18,3.42,0,3.59-.88s-.35-1-4.59-1h-4.77l.18,7.19Z"/>
  <path class="cls-8" d="M106.99,416.39c0,.53.82,1,2.36,1.24l2.3.35-.29,5.42c-.29,5.6.12,7.25,1.83,6.66.82-.35.94-1.24.77-6.31l-.18-5.89h2.24c1.77,0,2.18-.24,2.18-1.18,0-1.12-.41-1.18-5.6-1.18-4.54,0-5.6.18-5.6.88Z"/>
  <path class="cls-8" d="M130.26,416.51c-.24-.53-1-1-1.77-1s-1.53.47-1.77,1c-1.71,4.36-4.41,12.26-4.41,12.91,0,1.65,1.82.76,2.7-1.24.77-1.89,1.01-2.06,3.42-2.06s2.65.12,3.3,2.06c.47,1.41,1.06,2.06,1.83,2.06.59,0,1.12-.41,1.12-.88,0-.65-2.77-8.72-4.42-12.85ZM128.49,423.76c-1.65,0-1.77-.24-.77-3l.71-2.01.71,1.77c.41,1,.76,2.12.82,2.47,0,.42-.64.77-1.47.77Z"/>
  <path class="cls-8" d="M139.5,421.34c.12,4.71.41,6.07,1.3,7.07,2.24,2.47,6.72,2.59,9.25.29.94-.88,1.12-1.89,1.12-7.13,0-5.66-.06-6.07-1.18-6.07s-1.18.41-1.18,5.89-.06,5.95-1.41,6.54c-2.06.94-4.42.18-5.07-1.59-.35-.82-.59-3.59-.59-6.19,0-4.36-.06-4.66-1.24-4.66s-1.24.24-1,5.83Z"/>
  <path class="cls-8" d="M168.55,426c-.53-1.65-.65-2.77-.24-3.48.83-1.59.65-3.95-.41-5.54-.88-1.35-1.36-1.47-5.3-1.47-3.12,0-4.48.24-4.71.77-.12.41-.18,3.65-.12,7.24.17,5.54.29,6.43,1.23,6.6.77.18,1.01-.17,1.01-1.47,0-3.65.53-4.3,3.29-4.3,2.24,0,2.6.18,2.89,1.47.18.83.41,2.12.59,2.95.35,1.65,1.77,2,2.3.59.17-.53-.06-2-.53-3.36ZM162.72,421.87c-2.89.18-2.95.12-2.36-2.76.35-1.77.53-1.89,2.77-1.71,1.47.11,2.59.59,3,1.17,1.12,1.77-.23,3.13-3.41,3.3Z"/>
  <path class="cls-8" d="M191.52,417.39c-.18,1.06-.29,4.3-.18,7.25.18,4.83.29,5.3,1.35,5.3s1.24-.47,1.47-4.71l.29-4.66,3.18,4.83c2.06,3.18,3.53,4.83,4.24,4.83,1.06,0,1.12-.53,1.12-7.37s-.06-7.37-1.18-7.37c-1,0-1.12.47-1.3,4.71l-.18,4.66-3.12-4.66c-3.48-5.3-5.12-6.07-5.71-2.83Z"/>
  <path class="cls-8" d="M208.9,416.39c0,.53.59.88,1.47.94.82.06,1.83.12,2.24.18.47.06.77,1.89.88,6.42.12,5.66.29,6.36,1.18,6.19.82-.18,1-1.06,1.18-6.19l.18-5.95,2.3-.41c1.47-.24,2.36-.71,2.36-1.24,0-.65-1.24-.82-5.89-.82s-5.89.18-5.89.88Z"/>
</svg>